<svg width="400" height="60" viewBox="0 0 559.766 77.441" xmlns="http://www.w3.org/2000/svg"><g id="svgGroup" stroke-linecap="round" fill-rule="evenodd" font-size="16" stroke="#000" stroke-width="1" fill="none" style="stroke:#000;stroke-width:1;fill:black"><path d="M 48.535 35.645 L 56.641 30.273 A 21.936 21.936 0 0 0 57.675 31.02 Q 58.257 31.415 58.928 31.826 A 40.086 40.086 0 0 0 59.766 32.324 A 102.555 102.555 0 0 0 62.659 33.936 A 114.997 114.997 0 0 0 63.672 34.473 A 5580.451 5580.451 0 0 0 67.871 36.67 A 113.756 113.756 0 0 1 70.442 38.055 A 94.521 94.521 0 0 1 71.875 38.867 Q 73.633 39.648 74.902 40.771 A 41.492 41.492 0 0 1 77.344 43.115 A 164.149 164.149 0 0 0 79.688 45.508 A 9.589 9.589 0 0 0 81.768 47.073 A 11.398 11.398 0 0 0 82.52 47.461 Q 82.335 48.94 82.675 49.895 A 2.979 2.979 0 0 0 82.715 50 A 3.601 3.601 0 0 1 82.846 50.399 A 0.481 0.481 0 0 1 82.857 50.396 Q 83.029 50.354 83.284 50.388 A 2.084 2.084 0 0 1 83.301 50.391 A 40.494 40.494 0 0 1 84.235 47.864 A 35.764 35.764 0 0 1 84.57 47.07 A 65.245 65.245 0 0 1 85.986 44.043 A 255.629 255.629 0 0 0 87.451 41.064 A 33.785 33.785 0 0 0 88.26 39.253 A 43.055 43.055 0 0 0 88.867 37.695 A 8.843 8.843 0 0 1 87.576 36.212 A 7.3 7.3 0 0 1 86.865 34.912 A 15.554 15.554 0 0 1 86.016 32.263 A 14.283 14.283 0 0 1 85.938 31.885 A 44.843 44.843 0 0 1 85.449 28.76 Q 85.254 27.148 84.766 25.488 Q 85.742 24.023 87.158 23.096 A 14.23 14.23 0 0 1 90.234 21.582 A 24.666 24.666 0 0 1 92.424 20.926 A 29.706 29.706 0 0 1 93.848 20.605 A 149.334 149.334 0 0 0 95.85 20.19 A 173.716 173.716 0 0 0 97.949 19.727 A 95.677 95.677 0 0 1 101.208 18.728 Q 102.703 18.3 104.05 17.977 A 53.923 53.923 0 0 1 104.932 17.773 A 85.332 85.332 0 0 1 110.986 16.65 A 235.447 235.447 0 0 1 115.591 16.019 A 263.403 263.403 0 0 1 117.188 15.82 A 89.474 89.474 0 0 0 120.176 15.404 Q 122.205 15.088 124.512 14.648 A 4.413 4.413 0 0 0 124.998 15.073 Q 125.261 15.268 125.515 15.379 A 1.629 1.629 0 0 0 126.172 15.527 A 2.271 2.271 0 0 1 126.294 15.289 Q 126.641 14.706 127.091 14.985 A 0.838 0.838 0 0 1 127.1 14.99 A 0.937 0.937 0 0 0 127.18 15.036 Q 127.629 15.263 127.539 14.453 Q 128.516 16.113 130.029 17.236 A 15.976 15.976 0 0 0 132.166 18.566 L 132.227 18.262 L 133.496 18.359 L 136.231 18.359 Q 139.356 18.359 142.578 18.115 A 670.193 670.193 0 0 0 148.792 17.615 A 731.971 731.971 0 0 0 149.219 17.578 A 1645.562 1645.562 0 0 1 153.174 17.188 A 616.467 616.467 0 0 1 156.259 16.895 A 684.186 684.186 0 0 1 157.324 16.797 A 41.999 41.999 0 0 1 157.904 15.546 A 36.309 36.309 0 0 1 158.106 15.137 L 159.082 14.648 Q 160.711 14.558 161.459 15.013 A 1.563 1.563 0 0 1 161.572 15.088 A 13.298 13.298 0 0 1 162.165 15.548 Q 162.43 15.765 162.651 15.975 A 7.354 7.354 0 0 1 162.793 16.113 A 218.446 218.446 0 0 0 167.139 15.674 A 72.951 72.951 0 0 0 171.582 15.039 A 220.592 220.592 0 0 1 178.272 14.16 A 58.18 58.18 0 0 1 183.188 13.794 A 51.5 51.5 0 0 1 184.766 13.77 A 34.917 34.917 0 0 1 187.043 13.842 A 31.387 31.387 0 0 1 187.402 13.867 Q 188.672 13.965 189.746 14.16 L 190.723 14.844 A 3.538 3.538 0 0 0 191.314 15.684 A 4.224 4.224 0 0 0 191.553 15.918 A 34.564 34.564 0 0 0 192.676 16.895 A 20.2 20.2 0 0 1 193.994 18.227 A 25.904 25.904 0 0 1 195.02 19.434 A 3.997 3.997 0 0 1 195.734 20.862 Q 196.072 22.058 195.898 23.73 Q 195.117 24.902 194.727 25.098 L 193.848 26.27 L 192.871 26.172 Q 192.285 26.172 191.797 26.318 Q 191.309 26.465 190.82 26.66 A 8.132 8.132 0 0 1 190.039 27.002 A 5.047 5.047 0 0 1 189.576 27.149 A 6.584 6.584 0 0 1 189.16 27.246 A 26.193 26.193 0 0 1 188.644 27.241 Q 188.131 27.231 187.768 27.199 A 7.454 7.454 0 0 1 187.744 27.197 Q 187.207 27.148 186.621 27.148 A 39.879 39.879 0 0 0 183.751 27.257 A 50.358 50.358 0 0 0 181.348 27.49 A 257.727 257.727 0 0 0 175.781 28.223 A 95.064 95.064 0 0 1 172.934 28.607 A 83.831 83.831 0 0 1 172.022 28.711 A 94.307 94.307 0 0 1 170.3 28.882 A 68.529 68.529 0 0 1 168.75 29.004 A 59.167 59.167 0 0 1 168.109 30.911 Q 167.791 31.803 167.474 32.59 A 35.553 35.553 0 0 1 167.383 32.813 Q 166.699 34.473 165.918 36.035 A 43.394 43.394 0 0 0 164.502 39.404 A 57.199 57.199 0 0 0 163.652 41.87 A 67.596 67.596 0 0 0 163.281 43.066 A 36.361 36.361 0 0 0 162.441 44.478 Q 162.061 45.151 161.756 45.771 A 21.732 21.732 0 0 0 161.67 45.947 A 13.228 13.228 0 0 0 161.002 47.633 A 16.692 16.692 0 0 0 160.645 48.926 A 11.315 11.315 0 0 0 159.286 51.058 A 9.994 9.994 0 0 0 158.887 52.002 Q 158.438 53.236 158.161 54.212 A 18.922 18.922 0 0 0 158.008 54.785 L 157.617 55.957 Q 157.031 56.543 156.934 56.885 A 0.978 0.978 0 0 1 156.77 57.204 Q 156.685 57.317 156.564 57.424 A 2.006 2.006 0 0 1 156.445 57.52 Q 156.348 58.594 155.762 59.668 A 6.686 6.686 0 0 0 155.573 60.202 A 5.292 5.292 0 0 0 155.469 60.596 A 7.634 7.634 0 0 0 155.426 60.8 Q 155.389 60.991 155.377 61.12 A 1.2 1.2 0 0 0 155.371 61.23 A 3.038 3.038 0 0 1 155.344 61.651 Q 155.257 62.276 154.883 62.5 A 2.546 2.546 0 0 1 154.932 63 Q 154.932 63.233 154.892 63.475 A 3.215 3.215 0 0 1 154.883 63.525 A 61.69 61.69 0 0 1 154.736 64.304 A 53.671 53.671 0 0 1 154.688 64.551 Q 154.395 65.723 154.492 66.406 A 21.046 21.046 0 0 0 154.739 66.729 Q 154.854 66.876 154.96 67.006 A 12.328 12.328 0 0 0 155.029 67.09 Q 155.25 67.355 155.351 67.78 A 2.602 2.602 0 0 1 155.371 67.871 Q 155.813 68.166 156.088 68.294 A 1.56 1.56 0 0 0 156.25 68.359 Q 156.603 68.624 157.274 68.968 A 16.346 16.346 0 0 0 157.422 69.043 L 158.301 70.02 A 9.056 9.056 0 0 1 158.405 70.832 Q 158.496 71.965 158.25 72.885 A 4.252 4.252 0 0 1 157.422 74.512 Q 155.957 76.367 152.441 76.367 L 151.27 76.367 Q 150.894 75.992 150.75 75.732 A 0.871 0.871 0 0 1 150.684 75.586 A 105.648 105.648 0 0 1 150.311 75.446 Q 149.78 75.244 149.414 75.098 Q 148.987 74.927 148.634 74.457 A 3.098 3.098 0 0 1 148.535 74.316 Q 147.266 73.73 146.484 73.34 L 145.606 72.852 L 145.606 71.68 A 6.234 6.234 0 0 1 144.58 69.727 Q 144.238 68.652 144.043 67.578 A 21.191 21.191 0 0 0 143.726 66.327 A 18.361 18.361 0 0 0 143.604 65.918 A 5.87 5.87 0 0 0 143.284 65.103 A 4.683 4.683 0 0 0 142.969 64.551 A 42.933 42.933 0 0 1 142.943 63.072 Q 142.943 58.366 144.043 54.98 A 169.818 169.818 0 0 1 146.339 48.369 A 154.847 154.847 0 0 1 146.68 47.461 Q 147.461 45.508 148.242 43.506 A 41.296 41.296 0 0 0 149.609 39.355 L 150.488 38.379 A 607.062 607.062 0 0 0 150.815 37.631 Q 151.282 36.56 151.611 35.791 A 105.392 105.392 0 0 1 152.509 33.758 A 114.758 114.758 0 0 1 152.539 33.691 A 39.087 39.087 0 0 0 152.951 32.693 A 34.141 34.141 0 0 0 153.076 32.373 Q 153.32 31.738 153.516 31.25 A 12.382 12.382 0 0 0 152.954 31.262 A 9.49 9.49 0 0 0 152.441 31.299 A 10.103 10.103 0 0 0 151.465 31.445 Q 150.879 31.543 150.391 31.592 A 9.808 9.808 0 0 1 149.414 31.641 A 7.656 7.656 0 0 1 149.097 31.635 Q 148.657 31.616 148.438 31.543 A 5.52 5.52 0 0 1 146.369 32.025 A 6.441 6.441 0 0 1 146.094 32.031 L 145.117 32.031 A 3.061 3.061 0 0 1 144.807 32.016 A 2.397 2.397 0 0 1 144.58 31.982 A 2.775 2.775 0 0 0 144.376 31.949 Q 144.27 31.936 144.175 31.934 A 1.615 1.615 0 0 0 144.141 31.934 A 5.306 5.306 0 0 0 143.529 31.967 Q 143.23 32.001 142.981 32.073 A 2.324 2.324 0 0 0 142.578 32.227 L 140.332 32.227 L 139.356 32.227 A 2.025 2.025 0 0 0 139.203 32.233 Q 139.129 32.238 139.045 32.249 A 4.617 4.617 0 0 0 138.867 32.275 Q 138.67 32.308 138.518 32.319 A 1.981 1.981 0 0 1 138.379 32.324 A 7.27 7.27 0 0 1 137.533 32.273 A 9.13 9.13 0 0 1 136.914 32.178 Q 136.133 32.031 135.254 31.543 Q 134.108 30.015 133.709 29.888 A 0.289 0.289 0 0 0 133.691 29.883 L 132.813 28.711 Q 132.715 28.125 132.52 27.588 A 15.53 15.53 0 0 1 132.326 27.019 Q 132.23 26.721 132.135 26.389 A 24.951 24.951 0 0 1 132.129 26.367 A 24.88 24.88 0 0 1 131.615 24.955 A 29.323 29.323 0 0 1 131.609 24.938 A 10.224 10.224 0 0 1 129.746 26.469 A 8.297 8.297 0 0 1 128.76 27.002 A 23.332 23.332 0 0 1 123.724 28.615 A 26.386 26.386 0 0 1 122.949 28.76 A 926.369 926.369 0 0 0 116.553 29.883 A 17.871 17.871 0 0 0 112.078 31.335 A 21.954 21.954 0 0 0 110.059 32.422 A 3.858 3.858 0 0 0 109.444 32.24 Q 109.139 32.178 108.85 32.178 A 2.496 2.496 0 0 0 107.764 32.422 A 3.18 3.18 0 0 1 107.091 32.648 Q 106.357 32.812 105.324 32.757 A 11.746 11.746 0 0 1 104.785 32.715 A 3.171 3.171 0 0 1 103.614 33.451 A 3.875 3.875 0 0 1 103.32 33.545 A 36.179 36.179 0 0 0 101.563 34.082 Q 101.953 34.961 101.904 35.889 Q 101.864 36.661 102.06 37.197 A 1.995 1.995 0 0 0 102.148 37.402 A 35.068 35.068 0 0 0 104.618 37.523 Q 107.012 37.559 109.717 37.305 Q 113.867 36.914 117.871 36.816 A 1.938 1.938 0 0 1 117.891 36.933 Q 117.945 37.323 117.773 37.451 Q 117.578 37.598 117.676 37.988 A 8.218 8.218 0 0 1 118.445 38.615 A 10.719 10.719 0 0 1 119.043 39.209 A 57.116 57.116 0 0 0 120.41 40.625 A 7.933 7.933 0 0 0 121.284 41.384 A 6.601 6.601 0 0 0 121.826 41.748 A 2.539 2.539 0 0 0 122.977 42.1 Q 123.245 42.119 123.535 42.09 Q 123.926 42.871 124.072 43.799 A 3.263 3.263 0 0 1 124.112 44.308 Q 124.112 44.993 123.828 45.703 A 182.684 182.684 0 0 0 120.703 47.9 A 25.87 25.87 0 0 1 117.432 49.902 A 19.381 19.381 0 0 1 113.818 51.318 A 12.014 12.014 0 0 1 111.681 51.709 Q 111.003 51.773 110.281 51.773 A 17.074 17.074 0 0 1 109.57 51.758 L 108.838 51.758 A 0.558 0.558 0 0 1 108.671 51.729 Q 108.517 51.68 108.321 51.549 A 2.823 2.823 0 0 1 108.203 51.465 A 2.152 2.152 0 0 1 107.564 51.726 Q 106.916 51.883 106.006 51.758 A 6.207 6.207 0 0 0 105.614 51.716 Q 104.645 51.645 104.015 51.939 A 1.933 1.933 0 0 0 103.809 52.051 A 4.759 4.759 0 0 0 102.669 51.704 Q 102.12 51.607 101.492 51.607 A 8.424 8.424 0 0 0 101.221 51.611 A 10.303 10.303 0 0 1 100.889 51.617 Q 100.233 51.617 99.644 51.53 A 6.504 6.504 0 0 1 98.535 51.27 Q 96.973 53.32 95.703 55.664 A 38.544 38.544 0 0 0 93.465 60.624 A 42.655 42.655 0 0 0 93.457 60.645 A 45.557 45.557 0 0 0 95.423 60.892 Q 97.402 61.096 98.883 61.039 A 15.464 15.464 0 0 0 98.975 61.035 A 54.997 54.997 0 0 0 101.881 60.832 A 46.526 46.526 0 0 0 103.125 60.693 A 688.028 688.028 0 0 1 107.129 60.205 A 22.2 22.2 0 0 1 108.305 60.099 Q 109.683 60.009 111.434 60.038 A 58.857 58.857 0 0 1 112.305 60.059 A 11.399 11.399 0 0 1 114.734 59.082 A 15.407 15.407 0 0 1 116.943 58.643 Q 119.629 58.301 121.875 57.52 A 3.033 3.033 0 0 1 122.957 58.226 A 3.808 3.808 0 0 1 123.242 58.545 A 70.524 70.524 0 0 0 123.816 59.253 A 58.873 58.873 0 0 0 124.365 59.912 A 9.447 9.447 0 0 0 125.198 60.782 A 8.325 8.325 0 0 0 125.488 61.035 A 1.749 1.749 0 0 0 126.519 61.437 Q 126.71 61.45 126.917 61.43 A 2.807 2.807 0 0 0 126.953 61.426 A 2.054 2.054 0 0 1 127.49 62.354 A 16.166 16.166 0 0 1 127.669 63.069 A 13.662 13.662 0 0 1 127.734 63.379 A 2.448 2.448 0 0 0 127.866 63.824 A 1.882 1.882 0 0 0 128.076 64.209 Q 128.296 64.516 128.792 64.468 A 1.685 1.685 0 0 0 128.906 64.453 A 20.164 20.164 0 0 1 127.746 66.657 Q 126.727 68.317 125.537 69.385 Q 123.633 71.094 121.191 71.973 A 27.942 27.942 0 0 1 118.103 72.879 A 35.107 35.107 0 0 1 115.772 73.34 A 237.107 237.107 0 0 0 112.634 73.877 A 318.693 318.693 0 0 0 109.18 74.512 A 3.861 3.861 0 0 1 108.809 74.576 Q 108.385 74.628 108.04 74.56 A 1.685 1.685 0 0 1 107.715 74.463 A 3.072 3.072 0 0 0 107.016 74.269 A 4.237 4.237 0 0 0 106.348 74.219 Q 104.628 74.593 102.393 74.909 A 87.363 87.363 0 0 1 100.977 75.098 Q 97.852 75.488 94.629 75.391 A 29.262 29.262 0 0 1 89.214 74.734 A 26.778 26.778 0 0 1 88.477 74.561 A 11.417 11.417 0 0 1 85.891 73.588 A 9.134 9.134 0 0 1 83.691 71.973 Q 82.91 71.289 82.666 70.361 A 1.951 1.951 0 0 0 81.925 69.284 A 3.027 3.027 0 0 0 81.348 68.945 A 22.397 22.397 0 0 0 81.204 67.625 Q 81.112 66.952 80.975 66.212 A 36.249 36.249 0 0 0 80.957 66.113 A 206.925 206.925 0 0 1 80.518 63.687 A 235.43 235.43 0 0 1 80.371 62.842 A 41.558 41.558 0 0 1 79.932 59.473 Q 79.785 57.813 80.078 56.445 A 6.125 6.125 0 0 1 80.111 56.289 A 21.59 21.59 0 0 1 79.839 56.587 A 19.28 19.28 0 0 1 78.418 57.959 A 28.808 28.808 0 0 1 72.51 61.914 Q 69.238 63.574 65.527 64.697 A 213.035 213.035 0 0 1 57.91 66.846 Q 54.004 67.871 50.049 68.994 Q 46.094 70.117 42.285 71.582 A 47.584 47.584 0 0 0 41.109 71.596 Q 40.532 71.61 40.029 71.639 A 23.064 23.064 0 0 0 39.453 71.68 Q 38.281 71.777 37.207 71.973 L 35.059 72.363 A 20.793 20.793 0 0 1 33.788 72.552 A 26.176 26.176 0 0 1 32.715 72.656 A 1.368 1.368 0 0 0 32.612 72.64 Q 32.449 72.62 32.331 72.651 A 0.373 0.373 0 0 0 32.08 72.852 Q 31.934 73.145 31.641 73.34 Q 29.817 73.613 28.334 73.632 A 17.085 17.085 0 0 1 28.125 73.633 L 25.488 73.633 Q 24.121 73.633 22.656 74.023 Q 21.484 74.336 20.438 74.336 A 6.721 6.721 0 0 1 19.922 74.316 A 22.238 22.238 0 0 1 13.751 73.216 A 16.914 16.914 0 0 1 6.152 68.066 A 21.18 21.18 0 0 1 2.211 60.856 Q 1.243 57.904 0.868 54.372 A 41.698 41.698 0 0 1 0.684 51.953 A 1.368 1.368 0 0 0 0.7 51.85 Q 0.72 51.687 0.689 51.569 A 0.373 0.373 0 0 0 0.488 51.318 A 2.114 2.114 0 0 1 0.212 51.154 A 1.632 1.632 0 0 1 0 50.977 A 6.817 6.817 0 0 1 0.09 49.845 A 5.457 5.457 0 0 1 0.293 49.023 Q 0.527 48.32 0.449 47.305 A 8.157 8.157 0 0 0 0.391 46.777 Q 3.418 40.332 7.275 34.814 A 45.024 45.024 0 0 1 16.504 25.098 A 8.544 8.544 0 0 0 17.275 24.424 A 6.274 6.274 0 0 0 17.92 23.682 A 53.521 53.521 0 0 1 18.994 22.266 Q 19.531 21.582 20.215 21.045 Q 20.868 20.531 21.879 20.33 A 5.755 5.755 0 0 1 21.973 20.313 A 29.108 29.108 0 0 1 26.159 16.358 A 34.301 34.301 0 0 1 27.832 15.137 A 110.478 110.478 0 0 1 34.961 10.645 A 632.168 632.168 0 0 0 42.432 6.25 A 48.561 48.561 0 0 0 47.659 2.661 A 42.761 42.761 0 0 0 49.219 1.367 A 4.78 4.78 0 0 0 49.642 1.609 Q 50.424 2.001 50.928 1.807 A 1.991 1.991 0 0 1 51.648 1.671 Q 51.906 1.671 52.17 1.737 A 2.424 2.424 0 0 1 52.246 1.758 Q 52.995 3.338 54.133 4.104 A 4.131 4.131 0 0 0 54.541 4.346 A 122.814 122.814 0 0 0 57.471 5.811 A 15.829 15.829 0 0 1 60.303 7.568 Q 61.621 8.594 62.305 10.352 A 1.416 1.416 0 0 0 62.08 10.368 Q 61.63 10.441 61.67 10.84 Q 61.716 11.297 61.89 11.84 A 6.907 6.907 0 0 0 61.914 11.914 Q 62.109 12.5 62.109 12.988 Q 62.109 13.443 61.348 13.474 A 2.849 2.849 0 0 1 61.231 13.477 A 0.984 0.984 0 0 0 61.264 13.747 Q 61.351 14.05 61.661 14.131 A 1.007 1.007 0 0 0 61.914 14.16 A 0.984 0.984 0 0 1 62.185 14.194 Q 62.488 14.281 62.569 14.591 A 1.007 1.007 0 0 1 62.598 14.844 A 2.277 2.277 0 0 1 62.57 15.214 Q 62.515 15.546 62.354 15.771 A 0.678 0.678 0 0 0 62.252 15.995 Q 62.177 16.278 62.266 16.724 A 3.621 3.621 0 0 0 62.305 16.895 A 42.719 42.719 0 0 1 59.165 18.79 A 51.987 51.987 0 0 1 57.08 19.873 A 9973.636 9973.636 0 0 0 54.126 21.326 A 11537.716 11537.716 0 0 0 51.025 22.852 A 154.34 154.34 0 0 0 44.682 26.164 A 167.876 167.876 0 0 0 44.58 26.221 A 61.314 61.314 0 0 0 38.892 29.794 A 67.694 67.694 0 0 0 38.086 30.371 Q 34.863 32.715 31.592 35.547 Q 28.32 38.379 25.293 41.553 A 88.539 88.539 0 0 0 19.629 48.096 A 61.553 61.553 0 0 0 16.773 52.045 A 49.859 49.859 0 0 0 15.137 54.688 A 3.038 3.038 0 0 0 15.674 55.566 Q 16.016 55.957 16.211 56.445 Q 19.535 56.62 22.468 56.443 A 44.947 44.947 0 0 0 23.145 56.396 A 22.445 22.445 0 0 1 24.841 56.332 A 22.83 22.83 0 0 1 29.59 56.836 A 1.25 1.25 0 0 0 30.078 56.055 A 0.869 0.869 0 0 1 30.508 55.447 A 1.178 1.178 0 0 1 30.664 55.371 A 86.51 86.51 0 0 0 39.191 54.078 A 72.977 72.977 0 0 0 43.066 53.174 A 31076.734 31076.734 0 0 1 54.785 50.098 Q 53.371 49.548 52.209 49.187 A 25.437 25.437 0 0 0 51.66 49.023 A 1.432 1.432 0 0 1 51.527 48.872 Q 51.158 48.38 51.709 47.998 A 5.691 5.691 0 0 0 52.25 47.575 Q 52.527 47.33 52.734 47.07 Q 51.172 46.191 50.147 44.727 A 6.234 6.234 0 0 1 49.329 43.042 Q 49.09 42.298 48.978 41.42 A 11.618 11.618 0 0 1 48.926 40.918 A 2.193 2.193 0 0 0 49.336 40.461 A 1.623 1.623 0 0 0 49.609 39.551 A 1.455 1.455 0 0 0 49.107 38.426 A 2.02 2.02 0 0 0 48.926 38.281 Q 48.605 38.153 48.453 38.193 A 0.167 0.167 0 0 0 48.34 38.281 A 1.96 1.96 0 0 0 48.217 38.586 A 1.746 1.746 0 0 0 48.193 38.672 A 0.97 0.97 0 0 1 48.108 38.892 A 1.31 1.31 0 0 1 47.998 39.062 Q 47.859 39.249 47.497 39.08 A 1.49 1.49 0 0 1 47.461 39.063 A 5.884 5.884 0 0 1 47.575 38.312 Q 47.705 37.732 47.949 37.305 A 4.625 4.625 0 0 0 48.291 36.548 Q 48.438 36.133 48.535 35.645 Z M 419.629 75.586 L 414.063 71.582 A 39.056 39.056 0 0 0 409.815 62.207 Q 407.031 57.715 404.492 54.492 A 66.637 66.637 0 0 0 396.924 61.182 A 62.629 62.629 0 0 0 390.43 69.043 Q 390.299 70.421 390.123 71.468 A 18.289 18.289 0 0 1 389.941 72.412 A 5.91 5.91 0 0 1 389.57 73.552 A 4.551 4.551 0 0 1 388.916 74.609 A 6.284 6.284 0 0 1 387.669 75.741 A 7.665 7.665 0 0 1 387.061 76.123 A 15.714 15.714 0 0 1 386.129 76.606 Q 385.624 76.848 385.031 77.097 A 33.992 33.992 0 0 1 384.18 77.441 A 14.045 14.045 0 0 1 380.455 73.492 A 13.384 13.384 0 0 1 379.492 71.631 A 10.682 10.682 0 0 1 378.747 69.013 Q 378.434 66.87 379.102 64.746 Q 379.199 62.305 380.322 59.961 Q 381.445 57.617 383.057 55.518 Q 384.668 53.418 386.523 51.514 Q 388.379 49.609 390.039 47.949 A 3.589 3.589 0 0 1 390.963 46.427 A 4.376 4.376 0 0 1 391.162 46.24 A 25.668 25.668 0 0 1 392.92 44.824 Q 393.848 44.141 394.775 43.359 A 6.427 6.427 0 0 0 396.289 41.504 Q 395.659 39.433 393.95 37.321 A 18.784 18.784 0 0 0 393.652 36.963 A 55.184 55.184 0 0 1 390.039 32.227 Q 389.844 31.738 389.307 31.934 A 1.603 1.603 0 0 1 389.169 31.977 Q 388.743 32.09 388.574 31.836 Q 388.763 30.61 388.087 29.203 A 7.094 7.094 0 0 0 388.037 29.102 A 9.919 9.919 0 0 0 386.692 27.06 A 9.003 9.003 0 0 0 386.231 26.563 A 143.966 143.966 0 0 0 386.464 25.695 Q 386.567 25.308 386.68 24.878 A 279.012 279.012 0 0 0 386.914 23.975 Q 387.208 22.837 386.95 21.506 A 8.139 8.139 0 0 0 386.719 20.605 Q 386.719 19.824 387.012 19.092 A 30.75 30.75 0 0 1 387.378 18.214 A 25.633 25.633 0 0 1 387.598 17.725 Q 387.891 17.09 388.086 16.455 Q 388.281 15.82 387.988 15.234 A 6.747 6.747 0 0 1 388.635 15.165 Q 389.246 15.131 389.78 15.225 A 3.969 3.969 0 0 1 390.234 15.332 A 15.688 15.688 0 0 1 391.98 15.967 A 14.429 14.429 0 0 1 392.09 16.016 A 13.406 13.406 0 0 0 392.831 16.32 Q 393.289 16.492 393.701 16.602 Q 394.324 16.768 394.982 16.581 A 2.991 2.991 0 0 0 395.215 16.504 Q 395.117 16.992 395.215 17.188 Q 395.313 17.383 395.508 17.48 A 2.434 2.434 0 0 1 395.776 17.638 A 2.886 2.886 0 0 1 395.898 17.725 A 0.473 0.473 0 0 1 396.081 18.026 A 0.733 0.733 0 0 1 396.094 18.164 Q 397.229 18.519 398.519 19.466 A 15.657 15.657 0 0 1 399.512 20.264 Q 401.367 21.875 403.076 23.828 A 47.535 47.535 0 0 1 405.447 26.758 A 41.876 41.876 0 0 1 406.152 27.734 L 408.203 30.664 Q 410.547 29.199 413.281 27.197 A 8956.361 8956.361 0 0 0 418.216 23.582 A 9910.922 9910.922 0 0 0 418.945 23.047 Q 421.875 20.898 424.854 18.994 A 40.787 40.787 0 0 1 428.339 16.991 A 32.919 32.919 0 0 1 430.664 15.918 Q 432.234 16.657 433.149 17.701 A 5.488 5.488 0 0 1 433.252 17.822 A 13.419 13.419 0 0 1 434.734 20.014 A 12.456 12.456 0 0 1 434.815 20.166 A 22.239 22.239 0 0 1 435.938 22.705 A 7.206 7.206 0 0 0 436.939 24.556 A 6.662 6.662 0 0 0 437.179 24.856 A 8.375 8.375 0 0 1 439.111 23.096 A 14.23 14.23 0 0 1 442.188 21.582 A 24.666 24.666 0 0 1 444.377 20.926 A 29.706 29.706 0 0 1 445.801 20.605 A 149.334 149.334 0 0 0 447.803 20.19 A 173.716 173.716 0 0 0 449.902 19.727 A 95.677 95.677 0 0 1 453.161 18.728 Q 454.656 18.3 456.003 17.977 A 53.923 53.923 0 0 1 456.885 17.773 A 85.332 85.332 0 0 1 462.94 16.65 A 235.447 235.447 0 0 1 467.545 16.019 A 263.403 263.403 0 0 1 469.141 15.82 A 89.474 89.474 0 0 0 472.129 15.404 Q 474.158 15.088 476.465 14.648 A 4.413 4.413 0 0 0 476.951 15.073 Q 477.214 15.268 477.468 15.379 A 1.629 1.629 0 0 0 478.125 15.527 A 2.271 2.271 0 0 1 478.247 15.289 Q 478.594 14.706 479.045 14.985 A 0.838 0.838 0 0 1 479.053 14.99 A 0.937 0.937 0 0 0 479.133 15.036 Q 479.582 15.263 479.492 14.453 Q 480.469 16.113 481.982 17.236 A 15.976 15.976 0 0 0 485.007 18.991 A 17.883 17.883 0 0 0 485.352 19.141 A 8.343 8.343 0 0 1 485.386 19.411 Q 485.439 19.895 485.4 20.166 A 31.019 31.019 0 0 1 485.352 20.496 A 24.755 24.755 0 0 1 485.303 20.801 A 3.573 3.573 0 0 0 485.261 21.186 A 4.416 4.416 0 0 0 485.254 21.436 Q 485.254 21.715 485.384 22.223 A 9.252 9.252 0 0 0 485.449 22.461 A 15.157 15.157 0 0 1 483.858 24.616 Q 482.412 26.229 480.713 27.002 A 23.332 23.332 0 0 1 475.677 28.615 A 26.386 26.386 0 0 1 474.902 28.76 A 926.369 926.369 0 0 0 468.506 29.883 A 17.871 17.871 0 0 0 464.031 31.335 A 21.954 21.954 0 0 0 462.012 32.422 A 3.858 3.858 0 0 0 461.397 32.24 Q 461.092 32.178 460.803 32.178 A 2.496 2.496 0 0 0 459.717 32.422 A 3.18 3.18 0 0 1 459.044 32.648 Q 458.31 32.812 457.277 32.757 A 11.746 11.746 0 0 1 456.738 32.715 A 3.171 3.171 0 0 1 455.567 33.451 A 3.875 3.875 0 0 1 455.273 33.545 A 36.179 36.179 0 0 0 453.516 34.082 Q 453.906 34.961 453.857 35.889 Q 453.817 36.661 454.013 37.197 A 1.995 1.995 0 0 0 454.102 37.402 A 35.068 35.068 0 0 0 456.571 37.523 Q 458.965 37.559 461.67 37.305 Q 465.82 36.914 469.824 36.816 A 1.938 1.938 0 0 1 469.844 36.933 Q 469.898 37.323 469.727 37.451 Q 469.531 37.598 469.629 37.988 A 8.218 8.218 0 0 1 470.398 38.615 A 10.719 10.719 0 0 1 470.996 39.209 A 57.116 57.116 0 0 0 472.363 40.625 A 7.933 7.933 0 0 0 473.237 41.384 A 6.601 6.601 0 0 0 473.779 41.748 A 2.539 2.539 0 0 0 474.93 42.1 Q 475.198 42.119 475.488 42.09 Q 475.879 42.871 476.025 43.799 A 3.263 3.263 0 0 1 476.065 44.308 Q 476.065 44.993 475.781 45.703 A 182.684 182.684 0 0 0 472.656 47.9 A 25.87 25.87 0 0 1 469.385 49.902 A 19.381 19.381 0 0 1 465.772 51.318 A 12.014 12.014 0 0 1 463.634 51.709 Q 462.956 51.773 462.234 51.773 A 17.074 17.074 0 0 1 461.523 51.758 L 460.791 51.758 A 0.558 0.558 0 0 1 460.624 51.729 Q 460.47 51.68 460.274 51.549 A 2.823 2.823 0 0 1 460.156 51.465 A 2.152 2.152 0 0 1 459.517 51.726 Q 458.869 51.883 457.959 51.758 A 6.207 6.207 0 0 0 457.567 51.716 Q 456.598 51.645 455.968 51.939 A 1.933 1.933 0 0 0 455.762 52.051 A 4.759 4.759 0 0 0 454.622 51.704 Q 454.073 51.607 453.445 51.607 A 8.424 8.424 0 0 0 453.174 51.611 A 10.303 10.303 0 0 1 452.842 51.617 Q 452.186 51.617 451.598 51.53 A 6.504 6.504 0 0 1 450.488 51.27 Q 448.926 53.32 447.656 55.664 A 38.544 38.544 0 0 0 445.418 60.624 A 42.655 42.655 0 0 0 445.41 60.645 A 45.557 45.557 0 0 0 447.376 60.892 Q 449.355 61.096 450.836 61.039 A 15.464 15.464 0 0 0 450.928 61.035 A 54.997 54.997 0 0 0 453.834 60.832 A 46.526 46.526 0 0 0 455.078 60.693 A 688.028 688.028 0 0 1 459.082 60.205 A 22.2 22.2 0 0 1 460.258 60.099 Q 461.636 60.009 463.387 60.038 A 58.857 58.857 0 0 1 464.258 60.059 A 11.399 11.399 0 0 1 466.687 59.082 A 15.407 15.407 0 0 1 468.897 58.643 Q 471.582 58.301 473.828 57.52 A 3.033 3.033 0 0 1 474.91 58.226 A 3.808 3.808 0 0 1 475.195 58.545 A 70.524 70.524 0 0 0 475.769 59.253 A 58.873 58.873 0 0 0 476.318 59.912 A 9.447 9.447 0 0 0 477.152 60.782 A 8.325 8.325 0 0 0 477.441 61.035 A 1.749 1.749 0 0 0 478.473 61.437 Q 478.663 61.45 478.87 61.43 A 2.807 2.807 0 0 0 478.906 61.426 A 2.054 2.054 0 0 1 479.443 62.354 A 16.166 16.166 0 0 1 479.622 63.069 A 13.662 13.662 0 0 1 479.688 63.379 A 2.448 2.448 0 0 0 479.819 63.824 A 1.882 1.882 0 0 0 480.029 64.209 Q 480.249 64.516 480.745 64.468 A 1.685 1.685 0 0 0 480.859 64.453 A 20.164 20.164 0 0 1 479.699 66.657 Q 478.68 68.317 477.49 69.385 Q 475.586 71.094 473.145 71.973 A 27.942 27.942 0 0 1 470.056 72.879 A 35.107 35.107 0 0 1 467.725 73.34 A 237.107 237.107 0 0 0 464.587 73.877 A 318.693 318.693 0 0 0 461.133 74.512 A 3.861 3.861 0 0 1 460.762 74.576 Q 460.338 74.628 459.993 74.56 A 1.685 1.685 0 0 1 459.668 74.463 A 3.072 3.072 0 0 0 458.969 74.269 A 4.237 4.237 0 0 0 458.301 74.219 Q 456.581 74.593 454.346 74.909 A 87.363 87.363 0 0 1 452.93 75.098 Q 449.805 75.488 446.582 75.391 A 29.262 29.262 0 0 1 441.167 74.734 A 26.778 26.778 0 0 1 440.43 74.561 A 11.417 11.417 0 0 1 437.844 73.588 A 9.134 9.134 0 0 1 435.645 71.973 Q 434.863 71.289 434.619 70.361 A 1.951 1.951 0 0 0 433.878 69.284 A 3.027 3.027 0 0 0 433.301 68.945 A 22.397 22.397 0 0 0 433.157 67.625 Q 433.065 66.952 432.929 66.212 A 36.249 36.249 0 0 0 432.91 66.113 A 206.925 206.925 0 0 1 432.471 63.687 A 235.43 235.43 0 0 1 432.324 62.842 A 41.558 41.558 0 0 1 431.885 59.473 Q 431.738 57.813 432.031 56.445 A 6.125 6.125 0 0 1 433.252 53.809 Q 434.166 52.654 433.895 51.311 A 3.371 3.371 0 0 0 433.887 51.27 A 0.924 0.924 0 0 0 434.142 51.182 A 0.639 0.639 0 0 0 434.473 50.732 A 0.423 0.423 0 0 1 434.609 50.494 Q 434.802 50.33 435.238 50.388 A 2.084 2.084 0 0 1 435.254 50.391 A 40.494 40.494 0 0 1 436.188 47.864 A 35.764 35.764 0 0 1 436.523 47.07 A 65.245 65.245 0 0 1 437.94 44.043 A 255.629 255.629 0 0 0 439.404 41.064 A 33.785 33.785 0 0 0 440.213 39.253 A 43.055 43.055 0 0 0 440.82 37.695 A 8.843 8.843 0 0 1 439.529 36.212 A 7.3 7.3 0 0 1 438.818 34.912 A 15.554 15.554 0 0 1 437.969 32.263 A 14.283 14.283 0 0 1 437.891 31.885 A 44.843 44.843 0 0 1 437.402 28.76 A 20.022 20.022 0 0 0 436.84 25.916 A 16.003 16.003 0 0 1 436.593 26.35 Q 436.118 27.151 435.596 27.783 A 6.734 6.734 0 0 0 434.277 30.371 A 25.631 25.631 0 0 0 432.666 31.135 Q 431.834 31.563 430.903 32.102 A 57.474 57.474 0 0 0 429.395 33.008 Q 427.669 34.07 425.424 35.628 A 159.518 159.518 0 0 0 423.193 37.207 Q 419.531 39.844 414.356 44.238 A 24.23 24.23 0 0 1 415.43 45.581 A 18.24 18.24 0 0 1 416.309 46.875 Q 417.09 48.145 417.578 49.023 A 298.74 298.74 0 0 1 418.042 50.049 A 220.007 220.007 0 0 1 418.457 50.977 A 6.653 6.653 0 0 1 419.904 52.512 A 6.337 6.337 0 0 1 419.922 52.539 A 33.654 33.654 0 0 1 421.045 54.346 A 13.032 13.032 0 0 0 422.266 56.104 Q 422.949 56.934 424.023 57.422 A 25.758 25.758 0 0 0 424.784 60.356 A 20.092 20.092 0 0 0 425.684 62.646 A 10.108 10.108 0 0 1 426.668 66.977 A 10.154 10.154 0 0 1 426.66 67.383 A 11.252 11.252 0 0 1 425.88 69.317 A 8.561 8.561 0 0 1 424.658 71.094 A 10.943 10.943 0 0 0 423.523 72.583 A 8.483 8.483 0 0 0 422.754 74.121 L 420.996 74.707 A 3.56 3.56 0 0 0 420.313 75.013 A 2.593 2.593 0 0 0 419.629 75.586 Z M 223.382 33.396 A 22.745 22.745 0 0 0 223.731 37.402 Q 223.926 38.672 224.463 39.6 A 3.343 3.343 0 0 1 224.656 39.99 Q 224.98 40.767 224.902 41.699 Q 224.853 42.878 224.928 44.156 A 31.511 31.511 0 0 0 225.195 46.777 Q 225.586 49.512 226.221 52.344 Q 226.856 55.176 227.49 58.057 A 106.745 106.745 0 0 1 228.064 60.828 A 81.93 81.93 0 0 1 228.516 63.379 Q 228.815 63.379 229.114 63.722 A 2.378 2.378 0 0 1 229.297 63.965 A 4.315 4.315 0 0 1 229.408 64.14 Q 229.571 64.413 229.716 64.74 A 7.809 7.809 0 0 1 229.981 65.43 A 9.453 9.453 0 0 1 230.209 66.236 A 11.974 11.974 0 0 1 230.42 67.383 A 6.678 6.678 0 0 1 230.483 68.286 A 5.84 5.84 0 0 1 230.371 69.434 A 3.286 3.286 0 0 1 230.426 69.448 A 2.764 2.764 0 0 1 231.69 70.166 A 17.29 17.29 0 0 1 231.958 70.441 A 19.809 19.809 0 0 1 232.764 71.338 Q 233.301 71.973 233.789 72.656 A 4.225 4.225 0 0 0 233.855 72.746 A 3.646 3.646 0 0 0 234.961 73.73 A 8.003 8.003 0 0 0 235.256 73.924 A 6.699 6.699 0 0 0 238.281 74.951 A 6.652 6.652 0 0 0 238.834 74.974 Q 238.891 74.974 238.948 74.973 A 6.677 6.677 0 0 0 241.699 74.316 A 8.798 8.798 0 0 0 243.154 73.448 A 10.849 10.849 0 0 0 244.775 71.973 A 10.609 10.609 0 0 0 246.057 70.215 A 13.795 13.795 0 0 0 247.07 68.066 Q 246.973 67.285 247.022 66.748 Q 247.07 66.211 247.168 65.723 Q 247.266 65.234 247.266 64.746 A 2.543 2.543 0 0 0 247.265 64.701 Q 247.257 64.222 247.07 63.477 A 29.864 29.864 0 0 0 249.207 61.316 A 39.333 39.333 0 0 0 251.318 58.74 A 13.147 13.147 0 0 0 252.052 57.662 A 10.432 10.432 0 0 0 253.613 52.832 A 1.726 1.726 0 0 0 253.636 52.832 Q 254.204 52.824 254.443 52.441 L 254.932 51.66 A 4.328 4.328 0 0 1 255.073 51.448 A 3.668 3.668 0 0 1 255.469 50.977 A 0.868 0.868 0 0 1 255.695 50.815 Q 255.956 50.684 256.348 50.684 A 51.671 51.671 0 0 1 261.377 41.455 A 147.156 147.156 0 0 1 267.578 33.057 A 233.165 233.165 0 0 1 274.023 25.293 A 146.052 146.052 0 0 0 275.98 22.993 A 123.585 123.585 0 0 0 279.883 18.066 Q 279.785 16.211 280.664 14.893 Q 281.543 13.574 281.934 11.914 A 2.842 2.842 0 0 1 281.892 11.935 Q 281.44 12.151 281.33 11.995 A 0.194 0.194 0 0 1 281.299 11.914 Q 281.262 11.694 281.308 11.365 A 3.972 3.972 0 0 1 281.348 11.133 Q 281.445 10.645 281.494 10.01 A 2.493 2.493 0 0 0 281.496 9.987 Q 281.515 9.706 281.466 9.473 A 1.223 1.223 0 0 0 281.25 8.984 L 280.371 6.641 Q 280.078 5.859 279.883 5.371 A 21.748 21.748 0 0 0 279.73 4.998 A 25.863 25.863 0 0 0 279.443 4.346 A 18.419 18.419 0 0 1 279.425 4.305 Q 279.244 3.905 278.94 3.183 A 139.254 139.254 0 0 1 278.711 2.637 A 13.671 13.671 0 0 1 278.373 2.681 Q 277.244 2.813 276.563 2.686 A 7.707 7.707 0 0 1 276.417 2.657 A 6.897 6.897 0 0 1 275.098 2.246 L 273.731 1.66 A 3.712 3.712 0 0 0 273.628 1.618 Q 273.178 1.441 272.505 1.302 A 14.398 14.398 0 0 0 271.777 1.172 Q 268.115 4.773 265.273 7.916 A 98.024 98.024 0 0 0 262.158 11.523 A 142.941 142.941 0 0 0 260.213 13.951 A 123.333 123.333 0 0 0 255.371 20.557 A 223.671 223.671 0 0 0 255.277 20.696 A 241.422 241.422 0 0 0 249.365 29.834 A 187.006 187.006 0 0 1 248.152 31.776 Q 245.548 35.889 242.09 40.918 Q 241.705 39.709 241.46 38.269 A 28.525 28.525 0 0 1 241.162 35.889 A 631.801 631.801 0 0 1 240.918 32.922 A 746.63 746.63 0 0 1 240.674 29.785 A 243.646 243.646 0 0 0 240.088 23.242 A 41.938 41.938 0 0 0 239.969 22.213 A 37.199 37.199 0 0 0 238.916 16.943 A 24.009 24.009 0 0 0 238.81 16.573 A 21.535 21.535 0 0 0 236.572 11.475 A 11.499 11.499 0 0 0 232.617 7.52 A 2.939 2.939 0 0 0 232.688 6.88 Q 232.688 6.754 232.677 6.627 A 3.14 3.14 0 0 0 232.471 5.762 A 5.082 5.082 0 0 0 232.056 4.935 A 6.483 6.483 0 0 0 231.397 4.053 A 6.082 6.082 0 0 0 229.639 2.686 A 6.654 6.654 0 0 0 228.896 2.353 A 7.723 7.723 0 0 0 227.344 1.953 A 19.048 19.048 0 0 1 227.277 2.02 A 17.366 17.366 0 0 1 225.098 3.857 A 5.849 5.849 0 0 0 224.023 4.846 A 7.323 7.323 0 0 0 223.145 6.152 A 4.335 4.335 0 0 0 223.118 6.211 Q 222.737 7.07 222.593 8.383 A 15.243 15.243 0 0 0 222.51 9.717 A 36.541 36.541 0 0 0 222.502 10.494 Q 222.502 12.467 222.705 14.746 A 206.424 206.424 0 0 0 222.833 16.129 A 235.845 235.845 0 0 0 223.291 20.459 A 55.684 55.684 0 0 1 223.499 22.645 A 45.929 45.929 0 0 1 223.633 26.074 A 78.642 78.642 0 0 1 223.621 27.454 A 87.518 87.518 0 0 1 223.438 31.738 A 24.923 24.923 0 0 0 223.382 33.396 Z M 368.945 75.586 L 363.379 71.582 A 39.056 39.056 0 0 0 359.131 62.207 Q 356.348 57.715 353.809 54.492 A 66.637 66.637 0 0 0 346.24 61.182 A 62.629 62.629 0 0 0 339.746 69.043 Q 339.615 70.421 339.44 71.468 A 18.289 18.289 0 0 1 339.258 72.412 A 5.91 5.91 0 0 1 338.887 73.552 A 4.551 4.551 0 0 1 338.232 74.609 A 6.284 6.284 0 0 1 336.986 75.741 A 7.665 7.665 0 0 1 336.377 76.123 A 15.714 15.714 0 0 1 335.445 76.606 Q 334.94 76.848 334.348 77.097 A 33.992 33.992 0 0 1 333.496 77.441 A 14.045 14.045 0 0 1 329.772 73.492 A 13.384 13.384 0 0 1 328.809 71.631 A 10.682 10.682 0 0 1 328.063 69.013 Q 327.751 66.87 328.418 64.746 Q 328.516 62.305 329.639 59.961 Q 330.762 57.617 332.373 55.518 Q 333.984 53.418 335.84 51.514 Q 337.695 49.609 339.356 47.949 A 3.589 3.589 0 0 1 340.279 46.427 A 4.376 4.376 0 0 1 340.479 46.24 A 25.668 25.668 0 0 1 342.236 44.824 Q 343.164 44.141 344.092 43.359 A 6.427 6.427 0 0 0 345.606 41.504 Q 344.975 39.433 343.266 37.321 A 18.784 18.784 0 0 0 342.969 36.963 A 55.184 55.184 0 0 1 339.356 32.227 Q 339.16 31.738 338.623 31.934 A 1.603 1.603 0 0 1 338.485 31.977 Q 338.06 32.09 337.891 31.836 Q 338.079 30.61 337.403 29.203 A 7.094 7.094 0 0 0 337.354 29.102 A 9.919 9.919 0 0 0 336.008 27.06 A 9.003 9.003 0 0 0 335.547 26.563 A 143.966 143.966 0 0 0 335.78 25.695 Q 335.883 25.308 335.996 24.878 A 279.012 279.012 0 0 0 336.231 23.975 Q 336.524 22.837 336.266 21.506 A 8.139 8.139 0 0 0 336.035 20.605 Q 336.035 19.824 336.328 19.092 A 30.75 30.75 0 0 1 336.694 18.214 A 25.633 25.633 0 0 1 336.914 17.725 Q 337.207 17.09 337.402 16.455 Q 337.598 15.82 337.305 15.234 A 6.747 6.747 0 0 1 337.951 15.165 Q 338.562 15.131 339.097 15.225 A 3.969 3.969 0 0 1 339.551 15.332 A 15.688 15.688 0 0 1 341.296 15.967 A 14.429 14.429 0 0 1 341.406 16.016 A 13.406 13.406 0 0 0 342.147 16.32 Q 342.606 16.492 343.018 16.602 Q 343.64 16.768 344.298 16.581 A 2.991 2.991 0 0 0 344.531 16.504 Q 344.434 16.992 344.531 17.188 Q 344.629 17.383 344.824 17.48 A 2.434 2.434 0 0 1 345.093 17.638 A 2.886 2.886 0 0 1 345.215 17.725 A 0.473 0.473 0 0 1 345.398 18.026 A 0.733 0.733 0 0 1 345.41 18.164 Q 346.545 18.519 347.835 19.466 A 15.657 15.657 0 0 1 348.828 20.264 Q 350.684 21.875 352.393 23.828 A 47.535 47.535 0 0 1 354.764 26.758 A 41.876 41.876 0 0 1 355.469 27.734 L 357.52 30.664 Q 359.863 29.199 362.598 27.197 A 8956.361 8956.361 0 0 0 367.532 23.582 A 9910.922 9910.922 0 0 0 368.262 23.047 Q 371.191 20.898 374.17 18.994 A 40.787 40.787 0 0 1 377.655 16.991 A 32.919 32.919 0 0 1 379.981 15.918 Q 381.55 16.657 382.465 17.701 A 5.488 5.488 0 0 1 382.568 17.822 A 13.419 13.419 0 0 1 384.05 20.014 A 12.456 12.456 0 0 1 384.131 20.166 A 22.239 22.239 0 0 1 385.254 22.705 A 7.206 7.206 0 0 0 386.255 24.556 A 6.662 6.662 0 0 0 386.621 25 Q 385.84 26.66 384.912 27.783 A 6.734 6.734 0 0 0 383.594 30.371 A 25.631 25.631 0 0 0 381.982 31.135 Q 381.15 31.563 380.219 32.102 A 57.474 57.474 0 0 0 378.711 33.008 Q 376.985 34.07 374.741 35.628 A 159.518 159.518 0 0 0 372.51 37.207 Q 368.848 39.844 363.672 44.238 A 24.23 24.23 0 0 1 364.746 45.581 A 18.24 18.24 0 0 1 365.625 46.875 Q 366.406 48.145 366.895 49.023 A 298.74 298.74 0 0 1 367.358 50.049 A 220.007 220.007 0 0 1 367.773 50.977 A 6.653 6.653 0 0 1 369.22 52.512 A 6.337 6.337 0 0 1 369.238 52.539 A 33.654 33.654 0 0 1 370.361 54.346 A 13.032 13.032 0 0 0 371.582 56.104 Q 372.266 56.934 373.34 57.422 A 25.758 25.758 0 0 0 374.1 60.356 A 20.092 20.092 0 0 0 375 62.646 A 10.108 10.108 0 0 1 375.985 66.977 A 10.154 10.154 0 0 1 375.977 67.383 A 11.252 11.252 0 0 1 375.196 69.317 A 8.561 8.561 0 0 1 373.975 71.094 A 10.943 10.943 0 0 0 372.839 72.583 A 8.483 8.483 0 0 0 372.07 74.121 L 370.313 74.707 A 3.56 3.56 0 0 0 369.629 75.013 A 2.593 2.593 0 0 0 368.945 75.586 Z M 323.242 65.527 L 323.047 65.918 A 14.36 14.36 0 0 1 322.119 67.986 A 18.055 18.055 0 0 1 321.338 69.287 Q 320.215 70.996 318.701 72.314 Q 317.188 73.633 315.332 74.512 A 10.167 10.167 0 0 1 311.426 75.488 Q 310.49 75.272 310.005 75.03 A 1.737 1.737 0 0 1 309.717 74.854 Q 309.277 74.512 308.789 74.219 Q 308.496 74.023 308.252 73.877 Q 308.042 73.751 307.868 73.661 A 4.649 4.649 0 0 0 307.813 73.633 L 306.641 73.145 L 307.031 71.875 A 2.864 2.864 0 0 0 307.085 71.612 Q 307.175 71.017 306.934 70.654 A 2.879 2.879 0 0 0 306.737 70.397 Q 306.513 70.132 306.143 69.782 A 16.797 16.797 0 0 0 305.762 69.434 L 305.176 68.848 A 4.329 4.329 0 0 1 304.881 68.523 A 3.389 3.389 0 0 1 304.688 68.262 L 303.027 66.406 L 305.664 65.723 A 12.548 12.548 0 0 0 306.847 65.332 Q 308.008 64.878 308.634 64.294 A 2.766 2.766 0 0 0 308.936 63.965 A 2.722 2.722 0 0 0 309.352 63.158 Q 309.662 62.231 309.596 60.765 A 13.206 13.206 0 0 0 309.57 60.352 A 12.584 12.584 0 0 0 308.633 60.199 Q 307.624 60.075 306.816 60.168 A 5.015 5.015 0 0 0 306.299 60.254 A 46.492 46.492 0 0 0 303.613 60.938 A 43.58 43.58 0 0 1 300.049 61.768 A 19.38 19.38 0 0 1 297.783 62.053 A 24.516 24.516 0 0 1 296.094 62.109 A 22.19 22.19 0 0 1 295.155 62.09 A 18.215 18.215 0 0 1 294.629 62.061 Q 293.945 62.012 293.164 61.914 L 292.188 61.719 A 11.231 11.231 0 0 0 292.114 61.349 Q 291.956 60.617 291.797 60.498 A 3.421 3.421 0 0 1 291.553 60.296 A 4.12 4.12 0 0 1 291.406 60.156 Q 290.918 59.668 290.381 58.838 A 2.168 2.168 0 0 1 290.05 57.886 Q 290.01 57.529 290.066 57.12 A 4.291 4.291 0 0 1 290.137 56.738 A 5.116 5.116 0 0 1 289.711 55.75 A 4.224 4.224 0 0 1 289.551 54.98 A 10.943 10.943 0 0 0 288.672 57.422 L 288.281 58.398 L 287.305 58.594 A 0.427 0.427 0 0 0 287.16 58.716 Q 287.069 58.833 287.012 59.033 A 3.832 3.832 0 0 0 286.965 59.214 Q 286.923 59.39 286.916 59.516 A 0.905 0.905 0 0 0 286.914 59.57 L 286.426 61.23 A 3.931 3.931 0 0 1 286.182 61.456 A 3.267 3.267 0 0 1 286.035 61.572 A 3.421 3.421 0 0 0 285.791 61.774 A 4.12 4.12 0 0 0 285.645 61.914 Q 285.449 62.793 285.156 63.672 A 50.046 50.046 0 0 1 284.753 64.834 A 42.728 42.728 0 0 1 284.57 65.332 A 28.314 28.314 0 0 0 283.839 67.478 A 25.495 25.495 0 0 0 283.74 67.822 Q 283.398 69.043 283.496 70.215 L 283.106 71.289 A 4.384 4.384 0 0 1 282.474 71.913 A 3.693 3.693 0 0 1 282.031 72.217 A 20.689 20.689 0 0 1 280.859 72.852 Q 280.695 73.016 280.427 73.146 A 2.504 2.504 0 0 1 280.322 73.193 A 18.384 18.384 0 0 0 280.161 73.264 Q 279.932 73.364 279.785 73.438 L 279.492 74.512 L 278.32 74.707 A 108.382 108.382 0 0 0 277.823 74.799 Q 277.209 74.913 276.88 74.984 A 11.258 11.258 0 0 0 276.807 75 Q 276.367 75.098 275.781 75.098 L 274.805 75 A 73.094 73.094 0 0 1 274.298 74.582 Q 273.751 74.126 273.366 73.783 A 19.574 19.574 0 0 1 273.145 73.584 A 8.576 8.576 0 0 0 272.358 72.948 A 10.72 10.72 0 0 0 271.777 72.559 A 12.414 12.414 0 0 1 271.408 72.041 Q 270.876 71.249 270.801 70.801 A 38.811 38.811 0 0 0 270.703 70.239 A 29.799 29.799 0 0 0 270.606 69.727 Q 270.477 69.342 270.412 69.042 A 3.344 3.344 0 0 1 270.361 68.75 A 1.472 1.472 0 0 0 270.314 68.517 Q 270.278 68.395 270.222 68.299 A 0.687 0.687 0 0 0 270.117 68.164 L 268.848 66.992 L 269.922 66.113 L 270.02 64.453 Q 271.973 59.473 274.17 54.883 A 1161.873 1161.873 0 0 1 278.711 45.508 A 137.187 137.187 0 0 0 280.225 42.383 A 137.187 137.187 0 0 1 281.738 39.258 Q 281.647 38.983 281.641 38.623 A 3.052 3.052 0 0 1 281.641 38.574 A 1.865 1.865 0 0 1 281.678 38.214 Q 281.713 38.039 281.779 37.847 A 3.541 3.541 0 0 1 281.836 37.695 A 47.511 47.511 0 0 0 282.587 36.498 Q 282.985 35.84 283.312 35.245 A 25.574 25.574 0 0 0 283.594 34.717 A 204.966 204.966 0 0 0 284.961 32.031 A 74.317 74.317 0 0 1 286.572 28.809 A 21.05 21.05 0 0 1 287.645 27.02 A 27.041 27.041 0 0 1 288.672 25.586 L 290.234 24.902 A 14.936 14.936 0 0 0 290.468 24.822 Q 290.571 24.786 290.683 24.745 A 26.877 26.877 0 0 0 290.918 24.658 A 2.277 2.277 0 0 1 291.444 24.532 A 2.919 2.919 0 0 1 291.797 24.512 L 293.262 24.707 A 14.618 14.618 0 0 0 298.047 21.143 A 41.404 41.404 0 0 0 300.057 18.702 Q 301.003 17.464 301.97 16.037 A 67.813 67.813 0 0 0 302.246 15.625 L 303.223 14.258 L 304.492 15.039 A 3.512 3.512 0 0 0 304.874 15.235 Q 305.283 15.416 305.859 15.576 A 86.792 86.792 0 0 1 306.763 15.833 A 102.558 102.558 0 0 1 307.715 16.113 A 42.382 42.382 0 0 1 310.217 16.747 A 36.724 36.724 0 0 1 311.035 16.992 A 7.077 7.077 0 0 1 312.371 17.557 A 5.413 5.413 0 0 1 313.574 18.457 Q 314.16 20.02 314.258 20.801 Q 314.356 21.582 314.551 22.363 A 117.356 117.356 0 0 1 315.088 25.684 A 32.743 32.743 0 0 1 315.295 27.441 A 44.306 44.306 0 0 1 315.43 29.395 Q 315.918 31.055 316.26 32.666 Q 316.602 34.277 316.895 35.938 A 354.264 354.264 0 0 0 317.749 39.927 A 322.688 322.688 0 0 0 317.871 40.479 Q 318.359 42.676 319.141 44.629 A 10.033 10.033 0 0 1 319.413 44.632 Q 319.959 44.647 320.117 44.727 A 5.312 5.312 0 0 1 321.143 44.434 A 27.217 27.217 0 0 1 321.678 44.342 Q 322 44.29 322.363 44.238 L 323.438 44.141 L 323.828 45.117 Q 323.911 45.529 324.549 45.941 A 4.53 4.53 0 0 0 324.805 46.094 A 6.598 6.598 0 0 1 325.465 46.176 Q 326.239 46.315 326.66 46.631 Q 327.246 47.07 327.734 47.559 Q 328.098 47.922 328.461 48.116 A 2.231 2.231 0 0 0 328.516 48.145 L 329.981 48.73 L 329.199 50.195 A 11.588 11.588 0 0 1 327.838 52.127 A 15.419 15.419 0 0 1 326.416 53.564 A 17.202 17.202 0 0 1 322.363 56.25 A 15.827 15.827 0 0 1 322.48 57.084 A 13.684 13.684 0 0 1 322.51 57.373 A 4.619 4.619 0 0 0 322.628 58.064 A 5.683 5.683 0 0 0 322.754 58.496 Q 323.047 60.156 323.242 61.914 A 16.127 16.127 0 0 1 323.34 63.696 A 17.483 17.483 0 0 1 323.242 65.527 Z M 531.079 48.1 A 14.602 14.602 0 0 0 531.152 47.754 A 25.791 25.791 0 0 0 530.56 43.42 A 18.846 18.846 0 0 0 528.809 38.672 Q 526.758 34.863 523.731 31.885 Q 520.703 28.906 516.992 26.416 A 255.591 255.591 0 0 1 509.766 21.387 Q 505.078 20.313 500.244 17.969 Q 495.41 15.625 490.137 13.965 A 5.61 5.61 0 0 0 489.647 14.932 A 6.648 6.648 0 0 0 489.258 16.455 A 9.041 9.041 0 0 1 489.031 17.569 A 10.842 10.842 0 0 1 488.379 19.336 A 43.38 43.38 0 0 0 488.879 21.094 A 31.819 31.819 0 0 0 489.404 22.656 A 9.549 9.549 0 0 1 489.47 22.841 A 8.403 8.403 0 0 1 489.941 25.586 L 488.623 25.586 Q 488.031 25.586 488.076 26.266 A 1.761 1.761 0 0 0 488.086 26.367 A 0.365 0.365 0 0 1 488.181 26.533 Q 488.219 26.674 488.171 26.878 A 1.474 1.474 0 0 1 488.135 27.002 A 2.732 2.732 0 0 0 488.075 27.21 Q 488.002 27.509 487.943 27.963 A 15.298 15.298 0 0 0 487.891 28.418 A 45.432 45.432 0 0 1 488.553 31.113 A 53.274 53.274 0 0 1 489.502 37.451 A 50.198 50.198 0 0 1 489.71 41.998 A 47.984 47.984 0 0 1 489.453 46.973 Q 488.672 47.266 488.379 48.047 A 21.765 21.765 0 0 1 487.402 53.027 A 465.999 465.999 0 0 0 485.84 58.008 Q 485.84 58.804 485.658 59.384 A 2.452 2.452 0 0 1 485.303 60.107 A 4.728 4.728 0 0 0 484.801 60.982 A 6.467 6.467 0 0 0 484.473 61.914 A 179.855 179.855 0 0 0 484.522 62.498 A 164.011 164.011 0 0 0 484.912 66.455 A 20.776 20.776 0 0 0 485.15 68.048 A 16.685 16.685 0 0 0 485.791 70.459 Q 486.426 72.266 487.647 73.633 A 5.108 5.108 0 0 0 488.124 74.101 Q 489.29 75.106 491.211 75.586 A 173.279 173.279 0 0 1 502.441 70.85 Q 508.203 68.652 513.525 65.967 A 57.234 57.234 0 0 0 523.291 59.766 A 29.423 29.423 0 0 0 530.664 51.074 L 530.664 49.951 Q 530.664 49.512 530.762 49.219 A 13.794 13.794 0 0 0 530.859 48.914 A 17.033 17.033 0 0 0 530.957 48.584 A 7.194 7.194 0 0 0 531.003 48.416 Q 531.041 48.269 531.079 48.1 Z M 559.634 7.648 A 8.065 8.065 0 0 0 559.668 6.934 Q 559.045 6.622 558.588 6.256 A 3.848 3.848 0 0 1 557.91 5.566 Q 557.324 4.785 556.982 3.906 A 191.474 191.474 0 0 0 556.628 3.003 A 225.513 225.513 0 0 0 556.25 2.051 Q 556.03 1.501 555.687 0.921 A 11.707 11.707 0 0 0 555.078 0 A 8.427 8.427 0 0 0 554.807 0.004 Q 554.229 0.023 553.723 0.122 A 4.761 4.761 0 0 0 552.588 0.488 A 7.961 7.961 0 0 0 550.732 1.709 A 17.422 17.422 0 0 0 550.526 1.894 A 19.026 19.026 0 0 0 549.121 3.32 A 13.602 13.602 0 0 1 549.097 3.348 A 12.432 12.432 0 0 1 547.461 4.883 Q 547.656 6.738 546.924 8.447 A 41.032 41.032 0 0 1 546.607 9.168 Q 546.082 10.332 545.703 10.938 Q 545.215 12.012 545.41 12.744 Q 545.606 13.477 545.215 14.746 Q 545.117 15.234 544.678 15.43 A 1.568 1.568 0 0 0 544.559 15.488 A 1.213 1.213 0 0 0 544.043 16.016 A 2.361 2.361 0 0 0 543.972 16.59 Q 543.972 16.799 544.009 17.011 A 2.926 2.926 0 0 0 544.19 17.627 A 2.776 2.776 0 0 1 544.309 17.984 Q 544.491 18.681 544.336 19.531 Q 544.043 21.143 543.915 22.205 A 17.718 17.718 0 0 0 543.848 22.852 A 29.086 29.086 0 0 1 543.781 23.55 Q 543.746 23.88 543.706 24.171 A 13.54 13.54 0 0 1 543.604 24.805 A 4.664 4.664 0 0 1 543.066 26.27 A 4.603 4.603 0 0 1 542.952 26.459 Q 542.546 27.096 541.699 28.027 Q 541.577 29.187 541.379 30.671 A 166.315 166.315 0 0 1 541.113 32.568 A 433.286 433.286 0 0 0 540.918 33.926 A 493 493 0 0 0 540.332 38.184 A 149.635 149.635 0 0 0 540.146 39.633 A 130.54 130.54 0 0 0 539.697 43.799 A 28.271 28.271 0 0 0 539.614 44.977 Q 539.52 46.906 539.746 48.34 A 23.31 23.31 0 0 0 540.242 48.701 A 25.821 25.821 0 0 0 543.164 50.488 A 9.335 9.335 0 0 0 544.556 51.088 A 6.993 6.993 0 0 0 546.777 51.465 A 4.926 4.926 0 0 0 548.616 51.11 A 6.042 6.042 0 0 0 550.098 50.244 Q 551.66 49.023 552.734 45.898 Q 553.847 42.685 554.529 40.097 A 43.846 43.846 0 0 0 555.176 37.305 Q 555.859 33.789 556.299 30.615 A 147.691 147.691 0 0 1 556.593 28.598 A 174.079 174.079 0 0 1 557.373 23.926 A 40.17 40.17 0 0 1 557.911 21.44 Q 558.24 20.108 558.69 18.597 A 93.455 93.455 0 0 1 559.766 15.234 A 1.257 1.257 0 0 1 558.994 14.428 A 2.18 2.18 0 0 1 558.887 13.916 Q 558.826 13.275 558.879 12.539 A 11.527 11.527 0 0 1 558.984 11.621 A 69.01 69.01 0 0 1 559.424 9.082 A 17.696 17.696 0 0 0 559.532 8.463 Q 559.6 8.028 559.634 7.648 Z M 508.008 53.125 A 88.098 88.098 0 0 0 512.061 51.465 A 25.464 25.464 0 0 0 515.34 49.74 A 23.157 23.157 0 0 0 515.772 49.463 A 16.838 16.838 0 0 0 518.848 46.875 A 11.563 11.563 0 0 0 520.624 44.348 A 13.849 13.849 0 0 0 521.094 43.359 Q 520.508 42.188 519.531 41.26 A 47.562 47.562 0 0 0 517.578 39.502 Q 516.602 38.672 515.674 37.793 A 6.722 6.722 0 0 1 514.392 36.107 A 7.917 7.917 0 0 1 514.16 35.645 A 7.464 7.464 0 0 1 512.842 35.323 A 6.031 6.031 0 0 1 511.914 34.912 A 99.624 99.624 0 0 1 510.01 33.838 A 27.31 27.31 0 0 0 508.184 32.874 A 29.796 29.796 0 0 0 508.057 32.813 A 5.861 5.861 0 0 0 506.795 32.387 A 7.845 7.845 0 0 0 505.664 32.227 Q 503.516 31.152 501.807 30.664 A 10.125 10.125 0 0 1 500.775 30.312 Q 499.809 29.919 499.219 29.395 A 2.587 2.587 0 0 0 498.802 29.426 Q 498.407 29.491 498.145 29.688 A 71.814 71.814 0 0 1 499.132 33.939 A 57.43 57.43 0 0 1 499.609 36.67 A 49.256 49.256 0 0 1 500.147 43.213 Q 500.195 46.484 499.805 49.902 A 120.195 120.195 0 0 1 499.341 53.467 A 154.165 154.165 0 0 1 498.731 57.324 A 6.637 6.637 0 0 0 500.059 57.058 A 5.859 5.859 0 0 0 500.537 56.885 A 36.856 36.856 0 0 0 502.197 56.152 A 21.563 21.563 0 0 1 503.668 55.528 A 24.138 24.138 0 0 1 503.955 55.42 Q 504.79 55.112 505.903 55.002 A 11.578 11.578 0 0 1 506.152 54.98 Q 506.445 54.395 506.982 54.004 Q 507.52 53.613 508.008 53.125 Z M 549.609 61.719 L 550 62.5 A 16.093 16.093 0 0 1 550.189 63.348 A 12.771 12.771 0 0 1 550.293 63.965 A 76.542 76.542 0 0 1 550.391 64.673 A 93.172 93.172 0 0 1 550.488 65.43 A 39.92 39.92 0 0 1 549.878 67.383 A 30.828 30.828 0 0 1 549.219 69.141 Q 548.979 69.699 548.87 69.932 A 3.932 3.932 0 0 1 548.828 70.02 A 1.728 1.728 0 0 0 548.785 70.111 Q 548.731 70.239 548.731 70.313 Q 548.731 70.401 548.81 70.529 A 1.057 1.057 0 0 0 548.828 70.557 Q 548.908 70.676 548.923 71.154 A 7.635 7.635 0 0 1 548.926 71.387 L 548.438 72.559 A 4.224 4.224 0 0 1 547.824 73.251 A 3.54 3.54 0 0 1 547.315 73.633 A 10.114 10.114 0 0 1 545.996 74.316 A 3.931 3.931 0 0 1 545.372 74.654 A 4.278 4.278 0 0 1 545.361 74.658 A 2.246 2.246 0 0 0 545.117 74.78 Q 544.997 74.849 544.904 74.927 A 1.19 1.19 0 0 0 544.824 75 L 544.531 76.172 L 543.164 76.367 A 14.419 14.419 0 0 1 541.853 76.634 Q 541.172 76.739 540.558 76.755 A 8.508 8.508 0 0 1 540.332 76.758 L 539.258 76.758 A 142.454 142.454 0 0 0 538.702 76.251 Q 537.915 75.537 537.402 75.098 Q 536.719 74.512 535.84 74.023 A 14.545 14.545 0 0 1 535.23 72.858 Q 534.966 72.289 534.801 71.774 A 5.973 5.973 0 0 1 534.57 70.801 Q 534.387 69.606 534.116 69.19 A 0.885 0.885 0 0 0 534.082 69.141 L 532.715 67.773 L 533.887 66.895 L 532.715 65.039 Q 533.866 64.176 534.451 63.784 A 12.657 12.657 0 0 1 534.473 63.77 A 7.191 7.191 0 0 0 535.148 63.262 A 5.967 5.967 0 0 0 535.498 62.939 A 6.873 6.873 0 0 0 535.878 62.525 Q 536.144 62.212 536.426 61.816 Q 536.875 61.187 537.822 59.812 A 445.689 445.689 0 0 0 537.988 59.57 L 538.867 58.301 L 540.039 58.984 Q 540.519 59.272 541.802 59.513 A 17.746 17.746 0 0 0 541.846 59.521 A 217.791 217.791 0 0 1 542.786 59.698 Q 543.158 59.768 543.497 59.834 A 121.226 121.226 0 0 1 544.141 59.961 Q 545.703 60.449 547.217 60.693 A 6.132 6.132 0 0 1 548.263 60.952 Q 549.06 61.23 549.609 61.719 Z M 302.344 35.352 L 301.758 36.328 A 40.192 40.192 0 0 0 298.911 39.679 A 46.485 46.485 0 0 0 297.998 40.918 Q 296.191 43.457 294.922 45.703 L 293.75 47.461 A 25.471 25.471 0 0 0 292.676 49.219 A 7.167 7.167 0 0 1 293.458 49.131 A 6.172 6.172 0 0 1 293.799 49.121 A 5.331 5.331 0 0 0 294.639 49.057 A 4.788 4.788 0 0 0 294.824 49.023 Q 297.754 48.828 300.147 48.584 A 48.152 48.152 0 0 0 302.668 48.255 Q 304.001 48.047 305.469 47.754 A 502.546 502.546 0 0 0 304.388 43.222 A 568.496 568.496 0 0 0 304.004 41.65 Q 303.223 38.477 302.344 35.352 Z" vector-effect="non-scaling-stroke"/></g></svg>